<svg xmlns="http://www.w3.org/2000/svg" class="svg verticalOne" version="1.1" xml:space="preserve" enable-background="new 0 0 77.20125 114.759375" x="0px" y="0px" preserveAspectRatio="xMinYMin" viewBox="0 0 77.20125 114.759375" width="77.20125px" height="114.759375px">
  <rect fill="#990000" width="58" height="68" x="9.600625" y="0"/>
  <polygon fill="#FFFFFF" points="35.6,16.4 35.6,20 38.1,20 38.1,40.1 32.8,40.1 32.8,13.6 35.6,13.6 35.6,10 22.4,10 22.4,13.6 25.2,13.6 25.2,40.1 19.9,40.1 19.9,20 22.4,20 22.4,16.4 10,16.4 10,20 12.8,20 12.8,43.3 17.4,47.9 25.2,47.9 25.2,53.3 22.4,53.3 22.4,58 35.6,58 35.6,53.3 32.8,53.3 32.8,47.9 40.6,47.9 45.2,43.3 45.2,20 48,20 48,16.4" transform="translate(9.600625,0)"/>
  <g transform="translate(-0.0159375,107.225)">
    <g transform="scale(0.0159375) translate(0, 0)">
      <path transform="translate(0,0) rotate(180) scale(-1, 1)" d="M 137 1516 L 449 1516 L 449 0 L 137 0 L 137 1516 Z"/>
      <path transform="translate(584,0) rotate(180) scale(-1, 1)" d="M 629 -25 C 537 -25 458 -12 392 12 C 326 36 272 72 230 119 C 187 165 156 223 136 291 C 116 359 106 436 106 524 L 106 1516 L 418 1516 L 418 543 C 418 490 421 444 429 406 C 437 368 449 336 467 311 C 484 286 506 268 533 256 C 560 244 593 238 633 238 C 710 238 765 262 798 312 C 831 361 848 437 848 541 L 848 1516 L 1145 1516 L 1145 526 C 1145 438 1135 360 1116 292 C 1096 224 1066 166 1024 119 C 982 72 929 36 864 12 C 798 -12 720 -25 629 -25 Z"/>
      <path transform="translate(1835,0) rotate(180) scale(-1, 1)" d="M 125 1516 L 584 1516 C 654 1516 720 1508 784 1493 C 848 1477 904 1451 953 1413 C 1001 1375 1040 1325 1069 1263 C 1097 1200 1112 1122 1112 1028 C 1112 961 1105 902 1091 852 C 1077 802 1057 758 1032 721 C 1007 683 978 652 944 628 C 910 603 873 583 834 569 C 794 554 753 543 710 537 C 666 531 623 528 580 528 L 432 528 L 432 0 L 125 0 L 125 1516 Z M 588 774 C 668 774 726 794 762 834 C 797 874 815 936 815 1020 C 815 1100 797 1160 762 1198 C 727 1236 668 1255 586 1255 L 432 1255 L 432 774 L 588 774 Z"/>
      <path transform="translate(3009,0) rotate(180) scale(-1, 1)" d="M 629 -25 C 537 -25 458 -12 392 12 C 326 36 272 72 230 119 C 187 165 156 223 136 291 C 116 359 106 436 106 524 L 106 1516 L 418 1516 L 418 543 C 418 490 421 444 429 406 C 437 368 449 336 467 311 C 484 286 506 268 533 256 C 560 244 593 238 633 238 C 710 238 765 262 798 312 C 831 361 848 437 848 541 L 848 1516 L 1145 1516 L 1145 526 C 1145 438 1135 360 1116 292 C 1096 224 1066 166 1024 119 C 982 72 929 36 864 12 C 798 -12 720 -25 629 -25 Z"/>
      <path transform="translate(4260,0) rotate(180) scale(-1, 1)" d="M 137 1516 L 449 1516 L 449 0 L 137 0 L 137 1516 Z"/>
    </g>
  </g>
</svg>
