<svg xmlns="http://www.w3.org/2000/svg" class="svg horizontalTwo" version="1.1" xml:space="preserve" enable-background="new 0 0 847.5953125 68" x="0px" y="0px" preserveAspectRatio="xMinYMin" viewBox="0 0 847.5953125 68" width="847.5953125px" height="68px">
  <rect fill="#990000" width="58" height="68" x="0" y="0"/>
  <polygon fill="#FFFFFF" points="35.6,16.4 35.6,20 38.1,20 38.1,40.1 32.8,40.1 32.8,13.6 35.6,13.6 35.6,10 22.4,10 22.4,13.6 25.2,13.6 25.2,40.1 19.9,40.1 19.9,20 22.4,20 22.4,16.4 10,16.4 10,20 12.8,20 12.8,43.3 17.4,47.9 25.2,47.9 25.2,53.3 22.4,53.3 22.4,58 35.6,58 35.6,53.3 32.8,53.3 32.8,47.9 40.6,47.9 45.2,43.3 45.2,20 48,20 48,16.4" transform="translate(0,0)"/>
  <g transform="translate(70.8165625,44.225)">
    <g transform="scale(0.0159375) translate(0, 0)">
      <path transform="translate(0,0) rotate(180) scale(-1, 1)" d="M 137 1516 L 449 1516 L 449 0 L 137 0 L 137 1516 Z"/>
      <path transform="translate(584,0) rotate(180) scale(-1, 1)" d="M 629 -25 C 537 -25 458 -12 392 12 C 326 36 272 72 230 119 C 187 165 156 223 136 291 C 116 359 106 436 106 524 L 106 1516 L 418 1516 L 418 543 C 418 490 421 444 429 406 C 437 368 449 336 467 311 C 484 286 506 268 533 256 C 560 244 593 238 633 238 C 710 238 765 262 798 312 C 831 361 848 437 848 541 L 848 1516 L 1145 1516 L 1145 526 C 1145 438 1135 360 1116 292 C 1096 224 1066 166 1024 119 C 982 72 929 36 864 12 C 798 -12 720 -25 629 -25 Z"/>
      <path transform="translate(1835,0) rotate(180) scale(-1, 1)" d="M 125 1516 L 584 1516 C 654 1516 720 1508 784 1493 C 848 1477 904 1451 953 1413 C 1001 1375 1040 1325 1069 1263 C 1097 1200 1112 1122 1112 1028 C 1112 961 1105 902 1091 852 C 1077 802 1057 758 1032 721 C 1007 683 978 652 944 628 C 910 603 873 583 834 569 C 794 554 753 543 710 537 C 666 531 623 528 580 528 L 432 528 L 432 0 L 125 0 L 125 1516 Z M 588 774 C 668 774 726 794 762 834 C 797 874 815 936 815 1020 C 815 1100 797 1160 762 1198 C 727 1236 668 1255 586 1255 L 432 1255 L 432 774 L 588 774 Z"/>
      <path transform="translate(3009,0) rotate(180) scale(-1, 1)" d="M 629 -25 C 537 -25 458 -12 392 12 C 326 36 272 72 230 119 C 187 165 156 223 136 291 C 116 359 106 436 106 524 L 106 1516 L 418 1516 L 418 543 C 418 490 421 444 429 406 C 437 368 449 336 467 311 C 484 286 506 268 533 256 C 560 244 593 238 633 238 C 710 238 765 262 798 312 C 831 361 848 437 848 541 L 848 1516 L 1145 1516 L 1145 526 C 1145 438 1135 360 1116 292 C 1096 224 1066 166 1024 119 C 982 72 929 36 864 12 C 798 -12 720 -25 629 -25 Z"/>
      <path transform="translate(4260,0) rotate(180) scale(-1, 1)" d="M 137 1516 L 449 1516 L 449 0 L 137 0 L 137 1516 Z"/>
    </g>
  </g>
  <g transform="translate(155.0178125,44.225)">
    <g transform="scale(0.0159375) translate(0, 0)">
      <path transform="translate(0,0) rotate(180) scale(-1, 1)" d="M 571 -25 C 507 -25 450 -16 399 0 C 347 17 301 41 260 72 C 218 103 182 141 150 185 C 118 229 91 279 68 334 L 215 401 C 232 361 252 324 275 290 C 298 256 324 227 354 203 C 383 179 416 160 452 147 C 488 133 527 127 571 127 C 615 127 655 132 691 144 C 726 156 756 172 780 193 C 804 214 823 240 836 270 C 849 300 856 333 856 371 C 856 415 847 453 830 486 C 812 518 789 547 761 573 C 732 598 699 621 662 641 C 624 661 585 680 545 700 C 513 715 480 731 447 747 C 414 763 382 781 352 800 C 322 819 293 840 267 864 C 241 887 218 913 198 943 C 178 972 163 1005 152 1042 C 140 1078 135 1120 135 1167 C 135 1222 145 1273 166 1319 C 187 1365 216 1405 253 1439 C 290 1472 334 1498 384 1516 C 434 1534 488 1544 547 1544 C 607 1544 660 1535 708 1518 C 756 1501 798 1478 835 1449 C 872 1420 904 1386 931 1348 C 958 1309 981 1268 999 1225 L 852 1153 C 838 1185 821 1215 803 1244 C 785 1273 763 1299 739 1321 C 714 1343 686 1360 654 1373 C 622 1386 585 1393 545 1393 C 509 1393 476 1387 446 1377 C 416 1366 391 1351 370 1332 C 349 1312 333 1289 322 1262 C 310 1235 305 1206 305 1174 C 305 1130 313 1091 330 1059 C 347 1026 370 997 398 972 C 426 946 459 923 496 903 C 532 883 570 863 610 844 C 642 828 675 812 708 796 C 741 780 773 762 804 743 C 834 723 863 702 890 679 C 916 655 940 629 960 599 C 980 569 995 536 1007 499 C 1018 462 1024 421 1024 375 C 1024 319 1013 267 992 219 C 971 170 941 128 902 92 C 862 56 815 27 759 6 C 703 -14 641 -25 571 -25 Z"/>
      <path transform="translate(1120,0) rotate(180) scale(-1, 1)" d="M 633 -27 C 549 -27 474 -10 408 23 C 342 56 285 106 239 172 C 192 238 156 321 131 419 C 106 517 94 632 94 762 C 94 888 106 1000 132 1098 C 158 1195 194 1277 242 1343 C 289 1409 346 1459 413 1493 C 479 1527 553 1544 635 1544 C 705 1544 767 1532 820 1508 C 872 1484 917 1451 955 1409 C 993 1367 1024 1316 1048 1258 C 1072 1199 1090 1135 1104 1065 L 944 1036 C 932 1093 917 1143 900 1187 C 883 1231 862 1267 837 1297 C 812 1326 783 1348 749 1363 C 715 1378 675 1386 631 1386 C 572 1386 520 1371 475 1343 C 429 1315 391 1274 360 1221 C 329 1167 306 1102 290 1025 C 274 948 266 861 266 764 C 266 661 274 570 290 491 C 306 412 329 346 361 292 C 392 238 431 197 477 169 C 523 141 575 127 635 127 C 679 127 719 134 754 149 C 788 163 819 186 845 216 C 871 246 894 285 914 331 C 933 377 949 432 963 496 L 1120 469 C 1105 396 1084 329 1058 269 C 1032 208 999 156 959 112 C 919 68 873 33 819 9 C 765 -14 703 -27 633 -27 Z"/>
      <path transform="translate(2320,0) rotate(180) scale(-1, 1)" d="M 156 1516 L 328 1516 L 328 879 L 942 879 L 942 1516 L 1114 1516 L 1114 0 L 942 0 L 942 721 L 328 721 L 328 0 L 156 0 L 156 1516 Z"/>
      <path transform="translate(3590,0) rotate(180) scale(-1, 1)" d="M 643 -29 C 563 -29 490 -12 423 22 C 356 56 298 106 249 173 C 200 239 162 322 135 420 C 107 518 94 630 94 758 C 94 885 107 998 135 1096 C 162 1194 200 1276 249 1342 C 298 1408 356 1459 423 1493 C 490 1527 563 1544 643 1544 C 721 1544 794 1527 861 1493 C 928 1459 986 1408 1035 1342 C 1083 1276 1121 1194 1149 1096 C 1176 998 1190 885 1190 758 C 1190 630 1176 518 1149 420 C 1121 322 1083 239 1035 173 C 986 106 928 56 861 22 C 794 -12 721 -29 643 -29 Z M 643 127 C 700 127 752 141 798 169 C 844 197 883 237 915 291 C 947 345 972 411 990 489 C 1007 567 1016 657 1016 758 C 1016 858 1007 947 990 1025 C 972 1103 947 1168 915 1222 C 883 1276 844 1316 798 1344 C 752 1372 700 1386 643 1386 C 585 1386 532 1372 486 1344 C 439 1316 399 1276 367 1222 C 334 1168 309 1103 292 1025 C 274 947 266 858 266 758 C 266 657 274 567 292 489 C 309 411 334 345 367 291 C 399 237 439 197 486 169 C 532 141 585 127 643 127 Z"/>
      <path transform="translate(4874,0) rotate(180) scale(-1, 1)" d="M 643 -29 C 563 -29 490 -12 423 22 C 356 56 298 106 249 173 C 200 239 162 322 135 420 C 107 518 94 630 94 758 C 94 885 107 998 135 1096 C 162 1194 200 1276 249 1342 C 298 1408 356 1459 423 1493 C 490 1527 563 1544 643 1544 C 721 1544 794 1527 861 1493 C 928 1459 986 1408 1035 1342 C 1083 1276 1121 1194 1149 1096 C 1176 998 1190 885 1190 758 C 1190 630 1176 518 1149 420 C 1121 322 1083 239 1035 173 C 986 106 928 56 861 22 C 794 -12 721 -29 643 -29 Z M 643 127 C 700 127 752 141 798 169 C 844 197 883 237 915 291 C 947 345 972 411 990 489 C 1007 567 1016 657 1016 758 C 1016 858 1007 947 990 1025 C 972 1103 947 1168 915 1222 C 883 1276 844 1316 798 1344 C 752 1372 700 1386 643 1386 C 585 1386 532 1372 486 1344 C 439 1316 399 1276 367 1222 C 334 1168 309 1103 292 1025 C 274 947 266 858 266 758 C 266 657 274 567 292 489 C 309 411 334 345 367 291 C 399 237 439 197 486 169 C 532 141 585 127 643 127 Z"/>
      <path transform="translate(6158,0) rotate(180) scale(-1, 1)" d="M 156 1516 L 328 1516 L 328 156 L 928 156 L 928 0 L 156 0 L 156 1516 Z"/>
      <path transform="translate(7149,0) rotate(180) scale(-1, 1)" d=""/>
      <path transform="translate(7557,0) rotate(180) scale(-1, 1)" d="M 643 -29 C 563 -29 490 -12 423 22 C 356 56 298 106 249 173 C 200 239 162 322 135 420 C 107 518 94 630 94 758 C 94 885 107 998 135 1096 C 162 1194 200 1276 249 1342 C 298 1408 356 1459 423 1493 C 490 1527 563 1544 643 1544 C 721 1544 794 1527 861 1493 C 928 1459 986 1408 1035 1342 C 1083 1276 1121 1194 1149 1096 C 1176 998 1190 885 1190 758 C 1190 630 1176 518 1149 420 C 1121 322 1083 239 1035 173 C 986 106 928 56 861 22 C 794 -12 721 -29 643 -29 Z M 643 127 C 700 127 752 141 798 169 C 844 197 883 237 915 291 C 947 345 972 411 990 489 C 1007 567 1016 657 1016 758 C 1016 858 1007 947 990 1025 C 972 1103 947 1168 915 1222 C 883 1276 844 1316 798 1344 C 752 1372 700 1386 643 1386 C 585 1386 532 1372 486 1344 C 439 1316 399 1276 367 1222 C 334 1168 309 1103 292 1025 C 274 947 266 858 266 758 C 266 657 274 567 292 489 C 309 411 334 345 367 291 C 399 237 439 197 486 169 C 532 141 585 127 643 127 Z"/>
      <path transform="translate(8841,0) rotate(180) scale(-1, 1)" d="M 156 1516 L 920 1516 L 920 1358 L 328 1358 L 328 868 L 760 868 L 760 713 L 328 713 L 328 0 L 156 0 L 156 1516 Z"/>
      <path transform="translate(9820,0) rotate(180) scale(-1, 1)" d=""/>
      <path transform="translate(10228,0) rotate(180) scale(-1, 1)" d="M 156 1516 L 930 1516 L 930 1358 L 328 1358 L 328 879 L 768 879 L 768 723 L 328 723 L 328 156 L 965 156 L 965 0 L 156 0 L 156 1516 Z"/>
      <path transform="translate(11268,0) rotate(180) scale(-1, 1)" d="M 156 1516 L 356 1516 L 831 588 C 844 562 856 538 867 517 C 878 495 889 474 899 454 C 909 433 920 412 930 390 C 940 368 952 345 965 319 L 969 319 L 969 1516 L 1126 1516 L 1126 0 L 969 0 L 461 977 C 446 1004 433 1029 422 1051 C 410 1073 399 1094 389 1116 C 378 1138 367 1160 356 1184 C 344 1207 331 1234 317 1264 L 313 1264 L 313 0 L 156 0 L 156 1516 Z"/>
      <path transform="translate(12552,0) rotate(180) scale(-1, 1)" d="M 621 -27 C 537 -27 462 -9 397 25 C 331 60 276 111 231 179 C 186 246 152 329 129 427 C 105 525 94 636 94 762 C 94 884 106 994 131 1091 C 155 1188 191 1270 237 1337 C 283 1404 340 1455 407 1491 C 474 1526 550 1544 635 1544 C 702 1544 761 1533 813 1511 C 865 1489 909 1457 947 1416 C 985 1374 1016 1324 1041 1265 C 1066 1205 1086 1139 1102 1065 L 946 1034 C 920 1152 883 1241 834 1299 C 785 1357 717 1386 631 1386 C 575 1386 525 1373 480 1347 C 435 1321 397 1282 365 1230 C 333 1178 309 1113 292 1036 C 274 958 266 868 266 766 C 266 552 298 392 364 286 C 429 180 521 127 639 127 C 739 127 818 164 874 240 C 930 316 959 428 963 578 L 674 578 L 674 725 L 1116 725 L 1116 0 L 979 0 L 979 207 L 977 207 C 965 178 948 150 927 122 C 906 94 881 69 852 47 C 822 25 788 7 750 -6 C 711 -20 668 -27 621 -27 Z"/>
      <path transform="translate(13803,0) rotate(180) scale(-1, 1)" d="M 168 1516 L 340 1516 L 340 0 L 168 0 L 168 1516 Z"/>
      <path transform="translate(14311,0) rotate(180) scale(-1, 1)" d="M 156 1516 L 356 1516 L 831 588 C 844 562 856 538 867 517 C 878 495 889 474 899 454 C 909 433 920 412 930 390 C 940 368 952 345 965 319 L 969 319 L 969 1516 L 1126 1516 L 1126 0 L 969 0 L 461 977 C 446 1004 433 1029 422 1051 C 410 1073 399 1094 389 1116 C 378 1138 367 1160 356 1184 C 344 1207 331 1234 317 1264 L 313 1264 L 313 0 L 156 0 L 156 1516 Z"/>
      <path transform="translate(15595,0) rotate(180) scale(-1, 1)" d="M 156 1516 L 930 1516 L 930 1358 L 328 1358 L 328 879 L 768 879 L 768 723 L 328 723 L 328 156 L 965 156 L 965 0 L 156 0 L 156 1516 Z"/>
      <path transform="translate(16635,0) rotate(180) scale(-1, 1)" d="M 156 1516 L 930 1516 L 930 1358 L 328 1358 L 328 879 L 768 879 L 768 723 L 328 723 L 328 156 L 965 156 L 965 0 L 156 0 L 156 1516 Z"/>
      <path transform="translate(17675,0) rotate(180) scale(-1, 1)" d="M 156 1516 L 586 1516 C 659 1516 724 1507 781 1490 C 838 1472 886 1446 926 1410 C 965 1374 995 1330 1016 1276 C 1036 1222 1047 1158 1047 1085 C 1047 1024 1039 970 1024 924 C 1008 878 987 838 961 805 C 935 771 904 744 870 723 C 835 701 798 686 760 676 L 1067 0 L 891 0 L 594 645 L 326 645 L 326 0 L 156 0 L 156 1516 Z M 575 793 C 625 793 669 798 707 808 C 745 818 777 834 803 857 C 829 880 848 910 861 947 C 874 983 881 1029 881 1083 C 881 1133 874 1175 861 1210 C 848 1245 829 1274 804 1296 C 778 1318 746 1333 708 1343 C 670 1353 625 1358 575 1358 L 326 1358 L 326 793 L 575 793 Z"/>
      <path transform="translate(18842,0) rotate(180) scale(-1, 1)" d="M 168 1516 L 340 1516 L 340 0 L 168 0 L 168 1516 Z"/>
      <path transform="translate(19350,0) rotate(180) scale(-1, 1)" d="M 156 1516 L 356 1516 L 831 588 C 844 562 856 538 867 517 C 878 495 889 474 899 454 C 909 433 920 412 930 390 C 940 368 952 345 965 319 L 969 319 L 969 1516 L 1126 1516 L 1126 0 L 969 0 L 461 977 C 446 1004 433 1029 422 1051 C 410 1073 399 1094 389 1116 C 378 1138 367 1160 356 1184 C 344 1207 331 1234 317 1264 L 313 1264 L 313 0 L 156 0 L 156 1516 Z"/>
      <path transform="translate(20634,0) rotate(180) scale(-1, 1)" d="M 621 -27 C 537 -27 462 -9 397 25 C 331 60 276 111 231 179 C 186 246 152 329 129 427 C 105 525 94 636 94 762 C 94 884 106 994 131 1091 C 155 1188 191 1270 237 1337 C 283 1404 340 1455 407 1491 C 474 1526 550 1544 635 1544 C 702 1544 761 1533 813 1511 C 865 1489 909 1457 947 1416 C 985 1374 1016 1324 1041 1265 C 1066 1205 1086 1139 1102 1065 L 946 1034 C 920 1152 883 1241 834 1299 C 785 1357 717 1386 631 1386 C 575 1386 525 1373 480 1347 C 435 1321 397 1282 365 1230 C 333 1178 309 1113 292 1036 C 274 958 266 868 266 766 C 266 552 298 392 364 286 C 429 180 521 127 639 127 C 739 127 818 164 874 240 C 930 316 959 428 963 578 L 674 578 L 674 725 L 1116 725 L 1116 0 L 979 0 L 979 207 L 977 207 C 965 178 948 150 927 122 C 906 94 881 69 852 47 C 822 25 788 7 750 -6 C 711 -20 668 -27 621 -27 Z"/>
      <path transform="translate(21885,0) rotate(180) scale(-1, 1)" d=""/>
      <path transform="translate(22293,0) rotate(180) scale(-1, 1)" d="M 215 0 L 53 0 L 498 1522 L 657 1522 L 1102 0 L 930 0 L 809 436 L 336 436 L 215 0 Z M 702 817 C 689 861 677 904 666 945 C 654 986 643 1026 633 1064 C 623 1102 613 1139 603 1175 C 593 1211 584 1248 575 1284 L 571 1284 C 561 1247 552 1210 543 1174 C 533 1138 523 1101 513 1063 C 503 1025 492 987 480 947 C 468 907 456 865 444 821 L 379 586 L 768 586 L 702 817 Z"/>
      <path transform="translate(23448,0) rotate(180) scale(-1, 1)" d="M 156 1516 L 356 1516 L 831 588 C 844 562 856 538 867 517 C 878 495 889 474 899 454 C 909 433 920 412 930 390 C 940 368 952 345 965 319 L 969 319 L 969 1516 L 1126 1516 L 1126 0 L 969 0 L 461 977 C 446 1004 433 1029 422 1051 C 410 1073 399 1094 389 1116 C 378 1138 367 1160 356 1184 C 344 1207 331 1234 317 1264 L 313 1264 L 313 0 L 156 0 L 156 1516 Z"/>
      <path transform="translate(24732,0) rotate(180) scale(-1, 1)" d="M 156 1516 L 489 1516 C 593 1516 686 1501 766 1472 C 846 1443 914 1398 968 1337 C 1022 1276 1063 1198 1091 1102 C 1119 1006 1133 892 1133 760 C 1133 626 1118 512 1090 416 C 1062 320 1020 242 966 180 C 911 118 844 73 764 44 C 684 14 592 0 489 0 L 156 0 L 156 1516 Z M 512 154 C 588 154 654 165 710 189 C 766 212 813 248 850 297 C 887 346 915 409 933 485 C 951 561 961 653 961 760 C 961 864 951 953 933 1029 C 915 1104 887 1166 850 1215 C 813 1263 766 1299 710 1323 C 653 1346 586 1358 510 1358 L 328 1358 L 328 154 L 512 154 Z"/>
      <path transform="translate(25959,0) rotate(180) scale(-1, 1)" d=""/>
      <path transform="translate(26367,0) rotate(180) scale(-1, 1)" d="M 444 1358 L 53 1358 L 53 1516 L 1008 1516 L 1008 1358 L 616 1358 L 616 0 L 444 0 L 444 1358 Z"/>
      <path transform="translate(27430,0) rotate(180) scale(-1, 1)" d="M 156 1516 L 930 1516 L 930 1358 L 328 1358 L 328 879 L 768 879 L 768 723 L 328 723 L 328 156 L 965 156 L 965 0 L 156 0 L 156 1516 Z"/>
      <path transform="translate(28470,0) rotate(180) scale(-1, 1)" d="M 633 -27 C 549 -27 474 -10 408 23 C 342 56 285 106 239 172 C 192 238 156 321 131 419 C 106 517 94 632 94 762 C 94 888 106 1000 132 1098 C 158 1195 194 1277 242 1343 C 289 1409 346 1459 413 1493 C 479 1527 553 1544 635 1544 C 705 1544 767 1532 820 1508 C 872 1484 917 1451 955 1409 C 993 1367 1024 1316 1048 1258 C 1072 1199 1090 1135 1104 1065 L 944 1036 C 932 1093 917 1143 900 1187 C 883 1231 862 1267 837 1297 C 812 1326 783 1348 749 1363 C 715 1378 675 1386 631 1386 C 572 1386 520 1371 475 1343 C 429 1315 391 1274 360 1221 C 329 1167 306 1102 290 1025 C 274 948 266 861 266 764 C 266 661 274 570 290 491 C 306 412 329 346 361 292 C 392 238 431 197 477 169 C 523 141 575 127 635 127 C 679 127 719 134 754 149 C 788 163 819 186 845 216 C 871 246 894 285 914 331 C 933 377 949 432 963 496 L 1120 469 C 1105 396 1084 329 1058 269 C 1032 208 999 156 959 112 C 919 68 873 33 819 9 C 765 -14 703 -27 633 -27 Z"/>
      <path transform="translate(29670,0) rotate(180) scale(-1, 1)" d="M 156 1516 L 328 1516 L 328 879 L 942 879 L 942 1516 L 1114 1516 L 1114 0 L 942 0 L 942 721 L 328 721 L 328 0 L 156 0 L 156 1516 Z"/>
      <path transform="translate(30940,0) rotate(180) scale(-1, 1)" d="M 156 1516 L 356 1516 L 831 588 C 844 562 856 538 867 517 C 878 495 889 474 899 454 C 909 433 920 412 930 390 C 940 368 952 345 965 319 L 969 319 L 969 1516 L 1126 1516 L 1126 0 L 969 0 L 461 977 C 446 1004 433 1029 422 1051 C 410 1073 399 1094 389 1116 C 378 1138 367 1160 356 1184 C 344 1207 331 1234 317 1264 L 313 1264 L 313 0 L 156 0 L 156 1516 Z"/>
      <path transform="translate(32224,0) rotate(180) scale(-1, 1)" d="M 643 -29 C 563 -29 490 -12 423 22 C 356 56 298 106 249 173 C 200 239 162 322 135 420 C 107 518 94 630 94 758 C 94 885 107 998 135 1096 C 162 1194 200 1276 249 1342 C 298 1408 356 1459 423 1493 C 490 1527 563 1544 643 1544 C 721 1544 794 1527 861 1493 C 928 1459 986 1408 1035 1342 C 1083 1276 1121 1194 1149 1096 C 1176 998 1190 885 1190 758 C 1190 630 1176 518 1149 420 C 1121 322 1083 239 1035 173 C 986 106 928 56 861 22 C 794 -12 721 -29 643 -29 Z M 643 127 C 700 127 752 141 798 169 C 844 197 883 237 915 291 C 947 345 972 411 990 489 C 1007 567 1016 657 1016 758 C 1016 858 1007 947 990 1025 C 972 1103 947 1168 915 1222 C 883 1276 844 1316 798 1344 C 752 1372 700 1386 643 1386 C 585 1386 532 1372 486 1344 C 439 1316 399 1276 367 1222 C 334 1168 309 1103 292 1025 C 274 947 266 858 266 758 C 266 657 274 567 292 489 C 309 411 334 345 367 291 C 399 237 439 197 486 169 C 532 141 585 127 643 127 Z"/>
      <path transform="translate(33508,0) rotate(180) scale(-1, 1)" d="M 156 1516 L 328 1516 L 328 156 L 928 156 L 928 0 L 156 0 L 156 1516 Z"/>
      <path transform="translate(34499,0) rotate(180) scale(-1, 1)" d="M 643 -29 C 563 -29 490 -12 423 22 C 356 56 298 106 249 173 C 200 239 162 322 135 420 C 107 518 94 630 94 758 C 94 885 107 998 135 1096 C 162 1194 200 1276 249 1342 C 298 1408 356 1459 423 1493 C 490 1527 563 1544 643 1544 C 721 1544 794 1527 861 1493 C 928 1459 986 1408 1035 1342 C 1083 1276 1121 1194 1149 1096 C 1176 998 1190 885 1190 758 C 1190 630 1176 518 1149 420 C 1121 322 1083 239 1035 173 C 986 106 928 56 861 22 C 794 -12 721 -29 643 -29 Z M 643 127 C 700 127 752 141 798 169 C 844 197 883 237 915 291 C 947 345 972 411 990 489 C 1007 567 1016 657 1016 758 C 1016 858 1007 947 990 1025 C 972 1103 947 1168 915 1222 C 883 1276 844 1316 798 1344 C 752 1372 700 1386 643 1386 C 585 1386 532 1372 486 1344 C 439 1316 399 1276 367 1222 C 334 1168 309 1103 292 1025 C 274 947 266 858 266 758 C 266 657 274 567 292 489 C 309 411 334 345 367 291 C 399 237 439 197 486 169 C 532 141 585 127 643 127 Z"/>
      <path transform="translate(35783,0) rotate(180) scale(-1, 1)" d="M 621 -27 C 537 -27 462 -9 397 25 C 331 60 276 111 231 179 C 186 246 152 329 129 427 C 105 525 94 636 94 762 C 94 884 106 994 131 1091 C 155 1188 191 1270 237 1337 C 283 1404 340 1455 407 1491 C 474 1526 550 1544 635 1544 C 702 1544 761 1533 813 1511 C 865 1489 909 1457 947 1416 C 985 1374 1016 1324 1041 1265 C 1066 1205 1086 1139 1102 1065 L 946 1034 C 920 1152 883 1241 834 1299 C 785 1357 717 1386 631 1386 C 575 1386 525 1373 480 1347 C 435 1321 397 1282 365 1230 C 333 1178 309 1113 292 1036 C 274 958 266 868 266 766 C 266 552 298 392 364 286 C 429 180 521 127 639 127 C 739 127 818 164 874 240 C 930 316 959 428 963 578 L 674 578 L 674 725 L 1116 725 L 1116 0 L 979 0 L 979 207 L 977 207 C 965 178 948 150 927 122 C 906 94 881 69 852 47 C 822 25 788 7 750 -6 C 711 -20 668 -27 621 -27 Z"/>
      <path transform="translate(37034,0) rotate(180) scale(-1, 1)" d="M 453 625 L 33 1516 L 209 1516 L 541 782 L 545 782 L 877 1516 L 1042 1516 L 625 629 L 625 0 L 453 0 L 453 625 Z"/>
    </g>
  </g>
</svg>
